<svg width="19" height="18" viewBox="0 0 19 18" fill="none" xmlns="http://www.w3.org/2000/svg">
<path d="M17.1 16.1H17.2V16V6V5.9H17.1H1.9H1.8V6V16V16.1H1.9H17.1ZM17.1 4.1H17.2V4V2V1.9H17.1H1.9H1.8V2V4V4.1H1.9H17.1ZM15.2 0.1H17.1C18.0893 0.1 18.9 0.945833 18.9 2V16C18.9 17.0542 18.0893 17.9 17.1 17.9H1.9C0.910725 17.9 0.1 17.0542 0.1 16V2C0.1 0.945833 0.910725 0.1 1.9 0.1H3.8H5.7L13.3 0.100103L15.2 0.1Z" fill="#989898" stroke="white" stroke-width="0.2"/>
<path d="M12.6316 8.9751H10.5264V11.1912H12.6316V8.9751Z" fill="#989898"/>
<path d="M9.47343 8.9751H7.36816V11.1912H9.47343V8.9751Z" fill="#989898"/>
<path d="M6.31569 8.9751H4.21045V11.1912H6.31569V8.9751Z" fill="#989898"/>
<path d="M15.7898 8.9751H13.6846V11.1912H15.7898V8.9751Z" fill="#989898"/>
<path d="M10.2109 12.2993H8.21094V14.4045H10.2109V12.2993Z" fill="#989898"/>
<path d="M6.21046 12.2993H4.21045V14.4045H6.21046V12.2993Z" fill="#989898"/>
</svg>
