<svg width="20" height="20" viewBox="0 0 20 20" fill="none" xmlns="http://www.w3.org/2000/svg">
<path d="M1.15226 5.40306L9.84791 1.03547C9.89418 1.01223 9.94666 1 10.0001 1C10.0535 1 10.106 1.01223 10.1523 1.03547L18.8479 5.40306C18.8942 5.4263 18.9326 5.45972 18.9593 5.49997C18.986 5.54022 19.0001 5.58588 19.0001 5.63235V14.3677C19.0001 14.4142 18.986 14.4598 18.9593 14.5001C18.9326 14.5403 18.8942 14.5737 18.8479 14.597L10.1523 18.9646C10.106 18.9878 10.0535 19 10.0001 19C9.94666 19 9.89418 18.9878 9.84791 18.9646L1.15226 14.5969C1.10599 14.5736 1.06757 14.5402 1.04086 14.4999C1.01415 14.4597 1.00009 14.414 1.00008 14.3676V5.63235C1.00009 5.58588 1.01415 5.54022 1.04086 5.49997C1.06757 5.45972 1.10599 5.4263 1.15226 5.40306ZM4.94161 4.11118L13.028 8.17284L14.6358 7.36523L6.54943 3.30362L4.94161 4.11118ZM13.3479 8.6236V12.9579L13.9633 12.3497C14.007 12.3082 14.0641 12.2792 14.1272 12.2667C14.1903 12.2543 14.2562 12.2589 14.3162 12.28L14.9566 12.5072V7.82386L13.3479 8.6236ZM10.0001 1.57043L7.15817 2.99788L15.2445 7.05949L18.0864 5.63205L10.0001 1.57043ZM10.3044 18.2767L18.3914 14.2148V6.09034L15.5653 7.51812V12.9031C15.5634 12.9471 15.5494 12.9901 15.5245 13.0284C15.4995 13.0667 15.4643 13.0992 15.4219 13.1232C15.3794 13.1472 15.331 13.162 15.2806 13.1662C15.2302 13.1705 15.1794 13.1642 15.1324 13.1478L14.2786 12.8418L13.273 13.8345C13.2321 13.8749 13.178 13.9036 13.1179 13.9166C13.0578 13.9296 12.9946 13.9264 12.9367 13.9074C12.8788 13.8884 12.8288 13.8545 12.7936 13.8103C12.7583 13.766 12.7393 13.7135 12.7392 13.6596V8.92934L10.3044 10.1523V18.2767ZM10.0001 9.69363L12.4193 8.47854L4.33291 4.41703L1.91374 5.63213L10.0001 9.69363ZM1.60878 14.2148L9.69574 18.2767V10.1523L1.60878 6.09034V14.2148Z" fill="#989898" stroke="#989898" stroke-width="0.75"/>
</svg>
