<svg width="68" height="27" viewBox="0 0 68 27" fill="none" xmlns="http://www.w3.org/2000/svg">
<path d="M7.79853 15.3013H11.048C12.1268 15.3013 12.9976 16.1852 12.9976 17.251C12.9976 18.3298 12.1268 19.2007 11.048 19.2007H3.89922C1.7546 19.2007 -9.15527e-05 17.459 -9.15527e-05 15.3013C-9.15527e-05 13.1567 1.7546 11.402 3.89922 11.402C6.05684 11.402 7.79853 13.1567 7.79853 15.3013Z" fill="#C0DBFF"/>
<path d="M7.19909 15.3014H3.94967C2.87086 15.3014 2.00001 16.1853 2.00001 17.2511C2.00001 18.3299 2.87086 19.2008 3.94967 19.2008H11.0984C13.243 19.2008 14.9977 17.4591 14.9977 15.3014C14.9977 13.1568 13.243 11.4021 11.0984 11.4021C8.94078 11.4021 7.19909 13.1568 7.19909 15.3014Z" fill="#C0DBFF"/>
<path d="M32.4942 8.81552C35.3666 8.81552 37.6932 11.1421 37.6932 14.0146C37.6932 16.8871 35.3666 19.2137 32.4942 19.2137C29.6217 19.2137 27.2951 16.8741 27.2951 14.0146C27.2951 11.1421 29.6217 8.81552 32.4942 8.81552Z" fill="#FFC022"/>
<path d="M64.3385 15.3013C65.4173 15.3013 66.2882 16.1852 66.2882 17.251C66.2882 18.3298 65.4173 19.2007 64.3385 19.2007H57.1898C55.0322 19.2007 53.2905 17.459 53.2905 15.3013C53.2905 13.1567 55.0322 11.402 57.1898 11.402C59.3474 11.402 61.0891 13.1567 61.0891 15.3013H64.3385Z" fill="#C0DBFF"/>
<path d="M56.9496 15.3014C55.8708 15.3014 55 16.1853 55 17.2511C55 18.3299 55.8708 19.2008 56.9496 19.2008H64.0984C66.256 19.2008 67.9977 17.4591 67.9977 15.3014C67.9977 13.1568 66.256 11.4021 64.0984 11.4021C61.9408 11.4021 60.1991 13.1568 60.1991 15.3014H56.9496Z" fill="#C0DBFF"/>
<path d="M33.242 26.998C32.4816 26.998 31.8669 26.3933 31.8669 25.6469L31.8683 22.9473C31.8683 22.2009 32.4843 21.5976 33.2434 21.5976C34.0038 21.5976 34.6185 22.2023 34.6185 22.9473L34.6171 25.6496C34.6171 26.3946 34.0011 26.998 33.242 26.998Z" fill="#FFC022"/>
<path d="M33.2487 5.40041C32.4883 5.40041 31.8736 4.79571 31.8736 4.05064L31.875 1.34841C31.875 0.603344 32.491 0 33.2501 0H33.2515C34.0105 0 34.6252 0.604695 34.6252 1.35112L34.6238 4.05064C34.6238 4.79706 34.0078 5.40041 33.2487 5.40041Z" fill="#FFC022"/>
<path d="M41.9959 23.4426C41.6438 23.4426 41.2918 23.3103 41.0237 23.0471L39.0792 21.1372C38.5416 20.6095 38.5416 19.7551 39.0792 19.2286C39.6169 18.7009 40.486 18.7009 41.0237 19.2286L42.9681 21.1386C43.5057 21.6663 43.5057 22.5207 42.9681 23.0471C42.6999 23.3117 42.3479 23.4426 41.9959 23.4426Z" fill="#FFC022"/>
<path d="M26.4433 8.16624C26.0913 8.16624 25.7392 8.03396 25.4711 7.77075L23.5267 5.86219C22.989 5.33443 22.989 4.48138 23.5267 3.95362C24.0644 3.42586 24.9334 3.42586 25.4711 3.95362L27.4155 5.86219C27.9532 6.38995 27.9532 7.243 27.4155 7.77075C27.146 8.03396 26.7953 8.16624 26.4433 8.16624Z" fill="#FFC022"/>
<path d="M45.6247 14.8542L42.8731 14.8528C42.1141 14.8528 41.4994 14.2481 41.4994 13.5017C41.4994 12.7566 42.1154 12.1533 42.8745 12.1533H42.8759L45.6261 12.1546C46.3852 12.1546 46.9998 12.7593 46.9998 13.5044C46.9998 14.2508 46.3838 14.8542 45.6247 14.8542Z" fill="#FFC022"/>
<path d="M23.6231 14.8462H20.8729C20.1125 14.8462 19.4978 14.2429 19.4978 13.4965C19.4978 12.75 20.1125 12.1467 20.8729 12.1467H23.6231C24.3836 12.1467 24.9982 12.75 24.9982 13.4965C24.9982 14.2429 24.3836 14.8462 23.6231 14.8462Z" fill="#FFC022"/>
<path d="M40.0582 8.1687C39.7061 8.1687 39.3541 8.03642 39.086 7.77322C38.5483 7.24546 38.5483 6.39106 39.086 5.86465L41.0304 3.95743C41.568 3.42968 42.4371 3.42968 42.9748 3.95743C43.5124 4.48519 43.5124 5.33959 42.9748 5.866L41.0304 7.77322C40.7622 8.03642 40.4102 8.1687 40.0582 8.1687Z" fill="#FFC022"/>
<path d="M24.4963 23.4347C24.1443 23.4347 23.7922 23.3024 23.5241 23.0392C22.9864 22.5114 22.9864 21.6584 23.5241 21.1306L25.4685 19.2221C26.0062 18.6943 26.8752 18.6943 27.4129 19.2221C27.9506 19.7498 27.9506 20.6029 27.4129 21.1306L25.4685 23.0392C25.199 23.3037 24.8483 23.4347 24.4963 23.4347Z" fill="#FFC022"/>
</svg>
